<svg xmlns="http://www.w3.org/2000/svg" viewBox="0 0 51 51" xml:space="preserve"><path d="M50.5.5v50H.5V.5h50M51 0H0v51h51V0z"/><path d="M44.6 17.9v-.5h-27V10h27v-.5h-38v.5h4.9v7.4H6.7v.5H17v7.5H6.7v.5h17.5v7.3H6.7v.5h4.8V41H6.7v.5h37.9V41h-27v-7.3h27v-.5h-2.1v-7.3h2.1v-.5h-6.2v-7.5h6.2zm-5.4 15.3h-.9v-7.3h.9v7.3zm.6-7.3h.9v7.3h-.9v-7.3zm-2 7.3H37v-7.3h.9v7.3zM20.2 17.9h.9v7.5h-.9v-7.5zm-.4 7.5h-.9v-7.5h.9v7.5zm1.8-7.5h.9v7.5h-.9v-7.5zm1.4 0h9.3v7.5H23v-7.5zm11.2 7.5v-7.5h.9v7.5h-.9zm-.4 0h-.9v-7.5h.9v7.5zm-6.8.5v7.3h-.9v-7.3h.9zm.5 0h.8v7.3h-.8v-7.3zm1.3 0h.9v7.3h-.9v-7.3zm1.4 0h6.2v7.3h-6.2v-7.3zm5.5-.5v-7.5h.8v7.5h-.8zm-18.7-8h-.9V10h.9v7.4zM14.8 10h.9v7.4h-.9V10zm-.6 7.4h-.9V10h.9v7.4zM12 10h.9v7.4H12V10zm5.5 7.9h.8v7.5h-.8v-7.5zm7.3 8h.9v7.3h-.9v-7.3zm-10 7.8h.9V41h-.9v-7.3zm-.6 7.3h-.9v-7.3h.9V41zM12 33.7h.9V41H12v-7.3zm5 7.3h-.9v-7.3h.9V41zm25-7.8h-.8v-7.3h.8v7.3zm-4.2-7.8H37v-7.5h.9v7.5z" fill="#4c4c4c"/></svg>