<svg width="300" height="300" viewBox="0 0 300 300" fill="none" xmlns="http://www.w3.org/2000/svg">
<path d="M300 0H0V300H300V0Z" fill="#EEEEEE"/>
<path fill-rule="evenodd" clip-rule="evenodd" d="M145.725 111.489L146.573 113.145C147.158 114.287 147.88 115.683 148.711 117.289C152.46 124.534 158.41 136.036 163.817 147.548C167.12 154.58 170.229 161.633 172.514 167.736C174.782 173.794 176.294 179.056 176.294 182.442C176.294 199.325 162.606 213.013 145.723 213.013C128.878 213.013 115.152 199.287 115.152 182.442C115.152 179.06 116.602 173.913 118.796 167.992C121.007 162.027 124.026 155.142 127.27 148.222C132.689 136.661 138.756 124.955 142.764 117.222C143.554 115.697 144.264 114.328 144.873 113.144L145.725 111.489ZM120.588 168.656C118.388 174.591 117.063 179.443 117.063 182.442C117.063 198.232 129.933 211.102 145.723 211.102C161.551 211.102 174.383 198.27 174.383 182.442C174.383 179.446 173.001 174.486 170.725 168.406C168.466 162.372 165.382 155.372 162.088 148.36C156.698 136.886 150.77 125.428 147.02 118.179C146.552 117.273 146.117 116.433 145.721 115.667C145.328 116.428 144.904 117.245 144.456 118.11C140.446 125.846 134.401 137.51 129 149.033C125.766 155.932 122.772 162.763 120.588 168.656Z" fill="black"/>
<path fill-rule="evenodd" clip-rule="evenodd" d="M184.837 212.633C194.275 201.993 199.479 188.659 199.032 177.82L200.941 177.742C201.412 189.181 195.954 202.979 186.266 213.901C176.561 224.843 162.521 233 145.723 233C115.274 233 90.5042 208.23 90.5042 177.781H92.4148C92.4148 207.175 116.329 231.089 145.723 231.089C161.866 231.089 175.416 223.254 184.837 212.633Z" fill="black"/>
<path fill-rule="evenodd" clip-rule="evenodd" d="M158.052 199.93C163.893 197.327 166.547 192.563 167.465 187.712C168.376 182.893 167.59 177.94 166.541 174.732L164.725 175.326C165.7 178.308 166.424 182.928 165.587 187.357C164.757 191.748 162.41 195.903 157.258 198.193L157.258 198.192L157.219 198.211C156.997 198.322 156.73 198.378 156.423 198.378V200.288C156.95 200.288 157.515 200.194 158.052 199.93Z" fill="black"/>
<path fill-rule="evenodd" clip-rule="evenodd" d="M152.706 77.8184L171.146 84.2864L170.513 86.0894L153.873 80.2526L148 96.8936L146.198 96.2577L152.706 77.8184Z" fill="black"/>
<path fill-rule="evenodd" clip-rule="evenodd" d="M87 148.584L88.8111 147.975L94.4297 164.686L111.141 159.067L111.75 160.878L93.2276 167.106L87 148.584Z" fill="black"/>
<path fill-rule="evenodd" clip-rule="evenodd" d="M200.189 175.818L213.087 190.524L211.65 191.784L200.016 178.518L186.786 190.189L185.522 188.757L200.189 175.818Z" fill="black"/>
<path fill-rule="evenodd" clip-rule="evenodd" d="M141.274 68.8238L94.6913 166.307L92.9673 165.484L139.55 68L141.274 68.8238Z" fill="black"/>
<path fill-rule="evenodd" clip-rule="evenodd" d="M196.346 166.175L152.82 80.4618L154.524 79.5967L198.049 165.31L196.346 166.175Z" fill="black"/>
</svg>
