<svg width="300" height="300" viewBox="0 0 300 300" fill="none" xmlns="http://www.w3.org/2000/svg">
<rect width="300" height="300" fill="#EEEEEE"/>
<path fill-rule="evenodd" clip-rule="evenodd" d="M146.143 109.503L147.826 112.789C148.404 113.917 149.119 115.299 149.941 116.889C153.658 124.073 159.571 135.502 164.942 146.938C168.223 153.922 171.318 160.943 173.598 167.031C175.842 173.027 177.407 178.397 177.407 181.948C177.407 199.177 163.408 213.216 146.139 213.216C128.909 213.216 114.872 199.178 114.872 181.948C114.872 178.404 116.371 173.153 118.545 167.287C120.751 161.336 123.758 154.481 126.98 147.607C132.363 136.122 138.391 124.491 142.366 116.823C143.148 115.313 143.851 113.957 144.454 112.785L146.143 109.503ZM122.099 168.604C119.914 174.498 118.662 179.163 118.662 181.948C118.662 197.085 131.002 209.426 146.139 209.426C161.312 209.426 173.617 197.087 173.617 181.948C173.617 179.17 172.31 174.401 170.048 168.36C167.821 162.41 164.774 155.493 161.512 148.549C156.176 137.188 150.308 125.846 146.588 118.655C146.434 118.357 146.283 118.067 146.137 117.783C146.001 118.046 145.862 118.313 145.721 118.586C141.744 126.259 135.759 137.807 130.411 149.216C127.209 156.048 124.252 162.796 122.099 168.604Z" fill="black"/>
<path fill-rule="evenodd" clip-rule="evenodd" d="M184.222 211.224C193.459 200.811 198.494 187.817 198.063 177.364L201.85 177.208C202.329 188.852 196.79 202.767 187.058 213.739C177.291 224.749 163.123 233 146.139 233C115.416 233 90.4255 208.009 90.4255 177.286H94.2155C94.2155 205.916 117.509 229.21 146.139 229.21C161.824 229.21 175.02 221.599 184.222 211.224Z" fill="black"/>
<path fill-rule="evenodd" clip-rule="evenodd" d="M158.767 200.113C164.896 197.375 167.68 192.35 168.632 187.312C169.572 182.339 168.763 177.262 167.685 173.968L164.083 175.147C165.014 177.993 165.702 182.409 164.908 186.608C164.129 190.733 161.956 194.548 157.194 196.665L157.154 196.682L157.116 196.702C157.056 196.732 156.943 196.767 156.75 196.767V200.557C157.379 200.557 158.083 200.445 158.767 200.113Z" fill="black"/>
<path fill-rule="evenodd" clip-rule="evenodd" d="M152.486 76.9385L171.666 83.6664L170.412 87.2428L154.801 81.7669L149.29 97.3795L145.716 96.1181L152.486 76.9385Z" fill="black"/>
<path fill-rule="evenodd" clip-rule="evenodd" d="M87 148.631L90.5924 147.423L95.863 163.099L111.539 157.829L112.747 161.421L93.4784 167.899L87 148.631Z" fill="black"/>
<path fill-rule="evenodd" clip-rule="evenodd" d="M200.243 174.001L213.662 189.302L210.812 191.801L199.899 179.358L187.491 190.305L184.984 187.463L200.243 174.001Z" fill="black"/>
<path fill-rule="evenodd" clip-rule="evenodd" d="M142.58 69.6341L96.3803 166.317L92.9607 164.683L139.161 68L142.58 69.6341Z" fill="black"/>
<path fill-rule="evenodd" clip-rule="evenodd" d="M195.5 166.207L152.332 81.197L155.712 79.481L198.88 164.491L195.5 166.207Z" fill="black"/>
</svg>
