<svg width="300" height="300" viewBox="0 0 300 300" fill="none" xmlns="http://www.w3.org/2000/svg">
<path d="M300 0H0V300H300V0Z" fill="#EEEEEE"/>
<path fill-rule="evenodd" clip-rule="evenodd" d="M149.152 80L232 141.373L230.962 142.774L149.148 82.1667L68.0324 141.765L67 140.359L149.152 80Z" fill="black"/>
<path fill-rule="evenodd" clip-rule="evenodd" d="M93.7745 219.381V137.225H95.5181V219.381H93.7745Z" fill="black"/>
<path fill-rule="evenodd" clip-rule="evenodd" d="M204.526 137.225V219.381H202.782V137.225H204.526Z" fill="black"/>
<mask id="mask0_18177_14439" style="mask-type:luminance" maskUnits="userSpaceOnUse" x="108" y="132" width="82" height="78">
<path d="M189.95 144.478L165.714 169.9L160.274 164.216L186.567 137.644L136.945 132.692C136.945 132.692 108.63 157.137 108.63 157.695C108.63 158.253 117.661 195.914 117.661 195.914L154.346 209.792L189.357 184.127L189.95 144.478Z" fill="white"/>
</mask>
<g mask="url(#mask0_18177_14439)">
<path fill-rule="evenodd" clip-rule="evenodd" d="M172.328 151.965L138.868 185.425L131.362 175.265L132.764 174.229L139.067 182.76L171.095 150.732L172.328 151.965Z" fill="black"/>
</g>
<mask id="mask1_18177_14439" style="mask-type:luminance" maskUnits="userSpaceOnUse" x="108" y="132" width="82" height="78">
<path d="M189.95 144.478L165.714 169.9L160.274 164.216L186.567 137.644L136.945 132.692C136.945 132.692 108.63 157.137 108.63 157.695C108.63 158.253 117.661 195.914 117.661 195.914L154.346 209.792L189.357 184.127L189.95 144.478Z" fill="white"/>
</mask>
<g mask="url(#mask1_18177_14439)">
<path fill-rule="evenodd" clip-rule="evenodd" d="M148.837 141.236C132.524 141.236 119.301 154.459 119.301 170.772C119.301 187.084 132.524 200.308 148.837 200.308C165.149 200.308 178.373 187.084 178.373 170.772C178.373 154.459 165.149 141.236 148.837 141.236ZM117.557 170.772C117.557 153.497 131.561 139.492 148.837 139.492C166.112 139.492 180.116 153.497 180.116 170.772C180.116 188.047 166.112 202.051 148.837 202.051C131.561 202.051 117.557 188.047 117.557 170.772Z" fill="black"/>
</g>
</svg>
