<svg width="300" height="300" viewBox="0 0 300 300" fill="none" xmlns="http://www.w3.org/2000/svg">
<rect width="300" height="300" fill="#EEEEEE"/>
<path fill-rule="evenodd" clip-rule="evenodd" d="M149.155 80L232 141.371L229.937 144.155L149.147 84.3064L69.0518 143.154L67 140.362L149.155 80Z" fill="black"/>
<path fill-rule="evenodd" clip-rule="evenodd" d="M93.2544 219.59V137.945H96.7198V219.59H93.2544Z" fill="black"/>
<path fill-rule="evenodd" clip-rule="evenodd" d="M205.048 137.945V219.59H201.583V137.945H205.048Z" fill="black"/>
<mask id="mask0_17904_17264" style="mask-type:luminance" maskUnits="userSpaceOnUse" x="108" y="133" width="82" height="78">
<path d="M189.696 145.154L165.611 170.417L160.898 165.288L187.408 138.466L137.056 133.441C137.056 133.441 108.917 157.733 108.917 158.288C108.917 158.842 117.893 196.268 117.893 196.268L154.349 210.061L189.141 184.555L189.696 145.154Z" fill="white"/>
</mask>
<g mask="url(#mask0_17904_17264)">
<path fill-rule="evenodd" clip-rule="evenodd" d="M172.346 153.657L138.834 187.169L130.776 176.264L133.564 174.204L139.229 181.873L169.896 151.207L172.346 153.657Z" fill="black"/>
</g>
<mask id="mask1_17904_17264" style="mask-type:luminance" maskUnits="userSpaceOnUse" x="108" y="133" width="82" height="78">
<path d="M189.696 145.154L165.611 170.417L160.898 165.288L187.408 138.466L137.056 133.441C137.056 133.441 108.917 157.733 108.917 158.288C108.917 158.842 117.893 196.268 117.893 196.268L154.349 210.061L189.141 184.555L189.696 145.154Z" fill="white"/>
</mask>
<g mask="url(#mask1_17904_17264)">
<path fill-rule="evenodd" clip-rule="evenodd" d="M148.839 142.798C133.106 142.798 120.353 155.552 120.353 171.284C120.353 187.016 133.106 199.769 148.839 199.769C164.571 199.769 177.324 187.016 177.324 171.284C177.324 155.552 164.571 142.798 148.839 142.798ZM116.888 171.284C116.888 153.638 131.193 139.333 148.839 139.333C166.485 139.333 180.79 153.638 180.79 171.284C180.79 188.93 166.485 203.235 148.839 203.235C131.193 203.235 116.888 188.93 116.888 171.284Z" fill="black"/>
</g>
</svg>
