<svg width="300" height="300" viewBox="0 0 300 300" fill="none" xmlns="http://www.w3.org/2000/svg">
<path d="M300 0H0V300H300V0Z" fill="#EEEEEE"/>
<path fill-rule="evenodd" clip-rule="evenodd" d="M170.984 233H129.803V231.032H170.984V233Z" fill="black"/>
<path fill-rule="evenodd" clip-rule="evenodd" d="M170.984 221.82H129.803V219.851H170.984V221.82Z" fill="black"/>
<path fill-rule="evenodd" clip-rule="evenodd" d="M150.511 129.529L167.125 115.671L168.386 117.183L151.772 131.041L150.511 129.529Z" fill="black"/>
<path fill-rule="evenodd" clip-rule="evenodd" d="M150.613 144.323L168.565 131.646L169.701 133.254L151.748 145.931L150.613 144.323Z" fill="black"/>
<path fill-rule="evenodd" clip-rule="evenodd" d="M150.552 139.032L133.938 125.214L135.196 123.7L151.81 137.519L150.552 139.032Z" fill="black"/>
<path fill-rule="evenodd" clip-rule="evenodd" d="M150.575 153.923L132.623 141.285L133.756 139.675L151.708 152.313L150.575 153.923Z" fill="black"/>
<path fill-rule="evenodd" clip-rule="evenodd" d="M95 123.433C95 92.85 119.85 68 150.433 68C181.015 68 205.866 92.8102 205.866 123.433C205.866 147.16 190.98 167.389 170 175.337V210.48H168.031V173.964L168.678 173.728C189.248 166.228 203.897 146.549 203.897 123.433C203.897 93.8983 179.929 69.9685 150.433 69.9685C120.937 69.9685 96.9685 93.9372 96.9685 123.433C96.9685 146.548 111.657 166.228 132.149 173.729L132.795 173.965V208.511H152.126V210.48H130.827V175.336C109.924 167.388 95 147.16 95 123.433Z" fill="black"/>
<path fill-rule="evenodd" clip-rule="evenodd" d="M152.165 108.316V209.812H150.197V108.316H152.165Z" fill="black"/>
</svg>
