<svg width="300" height="300" viewBox="0 0 300 300" fill="none" xmlns="http://www.w3.org/2000/svg">
<rect width="300" height="300" fill="#EEEEEE"/>
<path fill-rule="evenodd" clip-rule="evenodd" d="M170.061 233H129.366V229.109H170.061V233Z" fill="black"/>
<path fill-rule="evenodd" clip-rule="evenodd" d="M170.061 221.952H129.366V218.061H170.061V221.952Z" fill="black"/>
<path fill-rule="evenodd" clip-rule="evenodd" d="M149.518 129.402L165.936 115.707L167.805 117.948L151.387 131.643L149.518 129.402Z" fill="black"/>
<path fill-rule="evenodd" clip-rule="evenodd" d="M149.65 143.998L167.391 131.471L169.074 133.854L151.333 146.382L149.65 143.998Z" fill="black"/>
<path fill-rule="evenodd" clip-rule="evenodd" d="M149.559 139.543L133.14 125.887L135.006 123.644L151.425 137.3L149.559 139.543Z" fill="black"/>
<path fill-rule="evenodd" clip-rule="evenodd" d="M149.613 154.281L131.872 141.792L133.552 139.406L151.293 151.895L149.613 154.281Z" fill="black"/>
<path fill-rule="evenodd" clip-rule="evenodd" d="M94 123.752C94 92.9925 118.993 68 149.752 68C180.511 68 205.504 92.9527 205.504 123.752C205.504 147.38 190.827 167.556 170.061 175.712V210.745H166.17V173.007L167.449 172.541C187.405 165.264 201.613 146.173 201.613 123.752C201.613 95.1032 178.364 71.8906 149.752 71.8906C121.141 71.8906 97.8906 95.1412 97.8906 123.752C97.8906 146.172 112.137 165.264 132.018 172.542L133.295 173.009V206.855H152.398V210.745H129.404V175.71C108.714 167.553 94 147.38 94 123.752Z" fill="black"/>
<path fill-rule="evenodd" clip-rule="evenodd" d="M152.436 107.84V210.085H148.546V107.84H152.436Z" fill="black"/>
</svg>
