<svg xmlns="http://www.w3.org/2000/svg" viewBox="0 0 51 51" xml:space="preserve"><path d="M50.5.5v50H.5V.5h50M51 0H0v51h51V0z"/><path class="st0" d="M35.3 9.7H28V5.8H7.4v7.9h27.9v-4zm-7.8 0h-1.6V6.3h1.6v3.4zM10 9.7V6.3h2.1v3.4H10zm2.7-3.4h2.1v3.4h-2.1V6.3zm2.6 0h2.1v3.4h-2.1V6.3zm2.7 0h2.1v3.4H18V6.3zm2.6 0h2.1v3.4h-2.1V6.3zm2.7 0h2.1v3.4h-2.1V6.3zm-15.4 0h1.6v3.4H7.9V6.3zm26.9 6.9H7.9v-3h26.9v3zm4.9 1.4H7.4v4h32.3v-4zm-.5 3.5H7.9v-3h31.3v3zM7.4 19.6v26.1h36.5V19.6H7.4zm36 .5v1.7h-7V24H7.9v-3.8h35.5zm-7 18.9v2.2H7.9v-3.8h35.5V39h-7zm7 .5v1.7h-6.5v-1.7h6.5zM7.9 36.8V33h35.5v3.8H7.9zm29-4.3v-1.7h6.5v1.7h-6.5zm-.5-2.2v2.2H7.9v-3.8h35.5v1.6h-7zM7.9 28.2v-3.8h35.5v3.8H7.9zm29-4.3v-1.7h6.5v1.7h-6.5zm-29 21.2v-3.5h35.5v3.5H7.9z"/></svg>