<svg xmlns="http://www.w3.org/2000/svg" viewBox="0 0 51 51" xml:space="preserve"><path d="M50.5.5v50H.5V.5h50M51 0H0v51h51V0z"/><path d="M42.6 7.9V5.6H8.5v2.3H6.4v37.3h38.5V7.9h-2.3zm1.8.5v12.4h-1.8V8.4h1.8zM15.9 33.3v11.4H9.5V33.3h6.4zm-9-.5V21.3h9v11.5h-9zM20.5 8.4v12.4h-8.8V8.4h8.8zm9.2 12.4V8.4h12.4v12.4H29.7zm-.5 0h-4.1V8.4h4.1v12.4zm-4.6 0H21V8.4h3.6v12.4zm-8.2.5h4.1v11.5h-4.1V21.3zm4.6 0h8.2v11.5H21V21.3zm8.7 0h3.8v11.5h-3.8V21.3zm4.3 0h8.1v11.5H34V21.3zm8.6 0h1.8v11.5h-1.8V21.3zM9 6.1h33.1v1.8H9V6.1zm2.2 2.3v12.4H6.9V8.4h4.3zM6.9 33.3H9v11.4H6.9V33.3zm9.5 11.4V33.3h28v11.4h-28z" fill="#4c4c4c"/></svg>