<svg width="604" height="608" viewBox="0 0 604 608" fill="none" xmlns="http://www.w3.org/2000/svg">
<path fill-rule="evenodd" clip-rule="evenodd" d="M465.61 5.49023H138.21C65.0499 5.49023 5.16992 65.3702 5.16992 138.53V469.4C5.16992 542.56 65.0499 602.44 138.21 602.44H465.61C538.77 602.44 598.65 542.56 598.65 469.4V138.53C598.66 65.3702 538.78 5.49023 465.61 5.49023ZM543.68 438.75C543.68 498.22 494.84 547.07 435.36 547.07H168.66C108.98 547.07 60.3399 498.23 60.3399 438.75V169.39C60.3399 109.71 108.98 61.0702 168.66 61.0702H435.36C494.83 61.0702 543.68 109.71 543.68 169.39V438.75Z" stroke="#5F5E5E" stroke-width="10" stroke-miterlimit="10"/>
<path fill-rule="evenodd" clip-rule="evenodd" d="M301.91 156.72C220.77 156.72 154.76 222.94 154.76 304.07C154.76 385.21 220.77 451.22 301.91 451.22C383.04 451.22 449.26 385.21 449.26 304.07C449.26 222.94 383.05 156.72 301.91 156.72ZM301.91 401.55C248.16 401.55 204.42 357.82 204.42 304.07C204.42 250.32 248.16 206.59 301.91 206.59C355.66 206.59 399.39 250.32 399.39 304.07C399.4 357.82 355.66 401.55 301.91 401.55Z" stroke="#5F5E5E" stroke-width="10" stroke-miterlimit="10"/>
<path fill-rule="evenodd" clip-rule="evenodd" d="M479.18 186.7C495.94 186.7 509.43 173.21 509.43 156.66C509.43 139.9 495.94 126.41 479.18 126.41C462.63 126.41 449.14 139.9 449.14 156.66C449.14 173.22 462.63 186.7 479.18 186.7Z" stroke="#5F5E5E" stroke-width="10" stroke-miterlimit="10"/>
</svg>
