<svg width="603" height="603" viewBox="0 0 603 603" fill="none" xmlns="http://www.w3.org/2000/svg">
<path d="M120.49 5.49023C56.8999 5.49023 5.16992 57.2202 5.16992 120.81V482.23C5.16992 545.81 56.8999 597.53 120.49 597.53H481.9C545.48 597.53 597.2 545.81 597.2 482.23V120.81C597.2 57.2202 545.48 5.49023 481.9 5.49023H120.49Z" stroke="#5F5E5E" stroke-width="10" stroke-miterlimit="10"/>
<path d="M86.3998 227.03H178.47V523.22H86.3998V227.03ZM132.45 79.8003C161.87 79.8003 185.79 103.74 185.79 133.21C185.79 162.67 161.87 186.54 132.45 186.54C102.94 186.54 79.0999 162.67 79.0999 133.21C79.0899 103.73 102.94 79.8003 132.45 79.8003Z" stroke="#5F5E5E" stroke-width="10" stroke-miterlimit="10"/>
<path d="M236.2 227.03H324.51V267.55H325.77C338.05 244.24 368.08 219.72 412.86 219.72C506.08 219.72 523.3 281.04 523.3 360.77V523.22H431.28V379.18C431.28 344.83 430.69 300.63 383.43 300.63C335.54 300.63 328.22 338.09 328.22 376.72V523.22H236.2V227.03Z" stroke="#5F5E5E" stroke-width="10" stroke-miterlimit="10"/>
</svg>
