<svg width="300" height="300" viewBox="0 0 300 300" fill="none" xmlns="http://www.w3.org/2000/svg">
<path d="M300 0H0V300H300V0Z" fill="#EEEEEE"/>
<mask id="mask0_18177_14459" style="mask-type:luminance" maskUnits="userSpaceOnUse" x="83" y="95" width="135" height="139">
<path d="M150.514 163.611V120.477L138.359 95.8193L105.366 108.426L90.0153 136.592L83 168.959L90.6752 199L116.757 223.137L148.812 233L184.097 224.665L207.783 200.98L217.021 173.162V140.203L206.845 123.568L186.702 137.599L187.188 164.757L150.514 163.611Z" fill="white"/>
</mask>
<g mask="url(#mask0_18177_14459)">
<path d="M155.48 107.453L166.941 109.641L164.857 120.512C172.81 123.082 179.756 127.666 185.347 133.987L194.516 127.77L201.08 137.425L191.911 143.641C195.731 151.178 197.433 159.339 196.877 167.674L207.748 169.758L205.56 181.218L194.689 179.135C192.119 187.088 187.535 194.034 181.214 199.625L187.431 208.794L177.776 215.357L171.56 206.189C164.926 209.558 157.772 211.259 150.479 211.259C149.507 211.259 148.499 211.225 147.527 211.155L145.443 222.025L133.983 219.837L136.066 208.967C128.113 206.397 121.167 201.813 115.576 195.492L106.407 201.709L99.8436 192.054L109.012 185.837C105.192 178.301 103.49 170.14 104.011 161.805L93.1408 159.721L95.3288 148.26L106.199 150.344C108.769 142.391 113.353 135.445 119.674 129.854L113.457 120.685L123.112 114.121L129.329 123.29C135.962 119.921 143.082 118.219 150.375 118.219C151.382 118.219 152.354 118.254 153.362 118.324L155.48 107.453ZM154.091 105.404L153.778 107.106L151.972 116.483C151.451 116.483 150.93 116.448 150.41 116.448C143.325 116.448 136.448 117.976 129.954 121.033L124.571 113.114L123.598 111.69L122.175 112.663L112.52 119.227L111.096 120.199L112.068 121.623L117.451 129.541C111.825 134.82 107.692 141.141 105.088 148.33L95.7108 146.559L94.0091 146.246L93.6965 147.948L91.4738 159.408L91.1613 161.11L92.863 161.423L102.24 163.229C101.997 170.869 103.525 178.266 106.824 185.247L98.9059 190.63L97.482 191.603L98.4544 193.026L105.018 202.681L105.991 204.105L107.415 203.133L115.333 197.75C120.612 203.376 126.932 207.509 134.121 210.113L132.316 219.49L132.003 221.192L133.705 221.504L145.165 223.692L146.867 224.005L147.18 222.303L148.951 212.926C149.472 212.926 149.958 212.961 150.479 212.961C157.598 212.961 164.475 211.433 170.969 208.377L176.352 216.295L177.325 217.719L178.749 216.747L188.403 210.183L189.827 209.21L188.855 207.786L183.472 199.868C189.098 194.589 193.231 188.269 195.835 181.08L205.212 182.885L206.914 183.198L207.227 181.496L209.415 170.036L209.727 168.334L208.026 168.021L198.649 166.215C198.892 158.575 197.364 151.178 194.064 144.197L201.983 138.814L203.406 137.842L202.434 136.418L195.87 126.763L194.898 125.339L193.474 126.311L185.556 131.694C180.277 126.068 173.956 121.935 166.767 119.331L168.538 109.954L168.851 108.252L167.149 107.94L155.688 105.752L154.091 105.404Z" fill="black"/>
<path fill-rule="evenodd" clip-rule="evenodd" d="M150.444 137.495C145.028 137.495 139.745 139.109 135.165 142.207C129.139 146.314 125.102 152.47 123.722 159.643L123.722 159.643C122.342 166.775 123.854 174.043 127.964 180.141C132.072 186.168 138.262 190.237 145.396 191.583C152.535 192.93 159.802 191.449 165.827 187.343C171.853 183.236 175.89 177.08 177.271 169.908C180.098 155.133 170.371 140.828 155.595 138L155.591 137.999C153.874 137.663 152.158 137.495 150.444 137.495ZM134.191 140.769C139.056 137.478 144.678 135.758 150.444 135.758C152.272 135.758 154.099 135.937 155.923 136.295C171.638 139.303 181.984 154.517 178.976 170.234L178.976 170.235C177.509 177.857 173.211 184.412 166.805 188.778C160.396 193.146 152.66 194.721 145.074 193.29C137.483 191.858 130.893 187.523 126.528 181.118L126.525 181.114C122.162 174.641 120.548 166.906 122.017 159.314C123.484 151.692 127.782 145.138 134.188 140.771L134.191 140.769Z" fill="black"/>
</g>
<path fill-rule="evenodd" clip-rule="evenodd" d="M179.478 122.351V165.346H177.742V122.351H179.478Z" fill="black"/>
<path fill-rule="evenodd" clip-rule="evenodd" d="M163.206 93.6054C161.575 97.4048 160.55 100.954 160.55 103.771C160.55 113.746 168.636 121.865 178.644 121.865C188.619 121.865 196.738 113.779 196.738 103.771C196.738 100.672 195.682 96.9816 194.016 93.1393C192.357 89.3113 190.124 85.4013 187.84 81.8826C185.557 78.3654 183.234 75.2563 181.405 73.032C180.49 71.9185 179.706 71.0367 179.119 70.4397C178.88 70.1962 178.682 70.0097 178.528 69.8771C178.367 70.015 178.16 70.2136 177.908 70.477C177.312 71.0992 176.528 72.0175 175.616 73.1744C173.795 75.4844 171.505 78.6981 169.261 82.2869C167.016 85.877 164.829 89.825 163.206 93.6054ZM178.771 69.6929C178.786 69.6845 178.785 69.6869 178.769 69.6937ZM178.28 69.6853C178.261 69.6762 178.258 69.6726 178.277 69.6834C178.278 69.684 178.279 69.6846 178.28 69.6853ZM177.926 68.1758C178.038 68.1131 178.263 68 178.54 68C178.825 68 179.053 68.1261 179.144 68.179C179.271 68.2519 179.397 68.3444 179.516 68.44C179.756 68.6332 180.041 68.9008 180.357 69.2222C180.993 69.8691 181.813 70.7935 182.746 71.9292C184.616 74.2035 186.978 77.3652 189.296 80.9371C191.614 84.5076 193.9 88.505 195.609 92.4487C197.313 96.3783 198.475 100.324 198.475 103.771C198.475 114.74 189.576 123.602 178.644 123.602C167.675 123.602 158.814 114.703 158.814 103.771C158.814 100.598 159.95 96.7885 161.611 92.9204C163.28 89.0332 165.514 85.0043 167.789 81.3663C170.064 77.7271 172.39 74.4616 174.252 72.0995C175.182 70.9202 176.004 69.9542 176.654 69.2761C176.976 68.9392 177.272 68.6566 177.527 68.4518C177.653 68.3502 177.788 68.2524 177.926 68.1758Z" fill="black"/>
<path fill-rule="evenodd" clip-rule="evenodd" d="M171.626 100.169L172.812 98.9004L178.643 104.353L184.44 98.902L185.629 100.167L178.646 106.733L171.626 100.169Z" fill="black"/>
<path fill-rule="evenodd" clip-rule="evenodd" d="M177.637 122.11V83.0737H179.374V122.11H177.637Z" fill="black"/>
</svg>
