<svg width="300" height="300" viewBox="0 0 300 300" fill="none" xmlns="http://www.w3.org/2000/svg">
<rect width="300" height="300" fill="#EEEEEE"/>
<mask id="mask0_17904_17263" style="mask-type:luminance" maskUnits="userSpaceOnUse" x="83" y="96" width="134" height="137">
<path d="M150.16 163.974V121.066L138.069 96.5371L105.249 109.078L89.9786 137.096L83 169.294L90.635 199.178L116.58 223.188L148.433 233L183.568 224.709L207.129 201.147L216.319 173.475V140.723L206.197 124.141L186.159 138.098L186.643 165.114L150.16 163.974Z" fill="white"/>
</mask>
<g mask="url(#mask0_17904_17263)">
<path d="M155.101 108.111L166.502 110.288L164.429 121.101C172.34 123.658 179.25 128.218 184.812 134.506L193.932 128.322L200.496 137.926L191.376 144.11C195.176 151.607 196.869 159.725 196.316 168.017L207.129 170.09L204.953 181.49L194.14 179.418C191.583 187.329 187.023 194.238 180.735 199.801L186.919 208.921L177.315 215.451L171.131 206.33C164.532 209.681 157.416 211.374 150.161 211.374C149.193 211.374 148.191 211.339 147.224 211.27L145.151 222.084L133.75 219.907L135.823 209.094C127.912 206.537 121.002 201.977 115.44 195.689L106.32 201.873L99.7902 192.269L108.911 186.085C105.111 178.588 103.418 170.47 103.936 162.178L93.1225 160.105L95.299 148.705L106.112 150.778C108.669 142.866 113.229 135.957 119.517 130.395L113.333 121.274L122.937 114.745L129.121 123.865C135.72 120.514 142.802 118.821 150.057 118.821C151.059 118.821 152.026 118.856 153.028 118.925L155.101 108.111ZM152.372 104.069L151.715 107.455L150.195 115.366C150.161 115.366 150.126 115.366 150.057 115.366C143.216 115.366 136.618 116.748 130.33 119.478L125.804 112.81L123.87 109.942L121.002 111.877L111.398 118.407L108.531 120.341L110.465 123.209L114.991 129.876C110.085 134.748 106.354 140.448 103.832 146.839L95.9209 145.319L92.5352 144.663L91.8788 148.048L89.7023 159.449L89.0459 162.835L92.4316 163.491L100.343 165.011C100.308 171.886 101.69 178.519 104.454 184.876L97.7864 189.402L94.919 191.336L96.8536 194.204L103.383 203.808L105.318 206.676L108.185 204.741L114.853 200.215C119.724 205.121 125.424 208.852 131.816 211.374L130.296 219.285L129.639 222.671L133.025 223.327L144.426 225.504L147.811 226.16L148.468 222.775L149.988 214.863C150.022 214.863 150.057 214.863 150.091 214.863C156.932 214.863 163.565 213.481 169.853 210.752L174.378 217.42L176.313 220.287L179.18 218.353L188.785 211.823L191.652 209.888L189.717 207.021L185.192 200.353C190.097 195.482 193.829 189.782 196.351 183.391L204.262 184.911L207.648 185.567L208.304 182.181L210.481 170.781L211.137 167.395L207.751 166.739L199.84 165.218C199.874 158.378 198.493 151.71 195.729 145.354L202.396 140.828L205.264 138.893L203.329 136.026L196.8 126.422L194.865 123.554L191.998 125.489L185.33 130.015C180.459 125.109 174.758 121.378 168.367 118.856L169.887 110.944L170.544 107.559L167.158 106.902L155.757 104.726L152.372 104.069Z" fill="black"/>
<path fill-rule="evenodd" clip-rule="evenodd" d="M135.377 143.396C129.573 147.353 125.687 153.278 124.357 160.19L124.356 160.191C123.029 167.056 124.481 174.053 128.443 179.933C132.402 185.74 138.361 189.655 145.229 190.951C152.109 192.249 159.105 190.822 164.906 186.868C170.712 182.912 174.598 176.986 175.929 170.074C178.651 155.847 169.283 142.068 155.052 139.346L155.044 139.344C153.39 139.02 151.739 138.858 150.091 138.858C144.878 138.858 139.791 140.411 135.377 143.396ZM133.439 140.537C138.421 137.166 144.181 135.403 150.091 135.403C151.965 135.403 153.837 135.587 155.705 135.953C171.805 139.036 182.403 154.621 179.322 170.725L179.322 170.726C177.819 178.532 173.415 185.25 166.852 189.723C160.285 194.199 152.357 195.812 144.589 194.346C136.81 192.878 130.057 188.435 125.586 181.875L125.581 181.868C121.115 175.243 119.46 167.317 120.964 159.536C122.467 151.731 126.871 145.013 133.434 140.54L133.439 140.537L133.439 140.537Z" fill="black"/>
</g>
<path fill-rule="evenodd" clip-rule="evenodd" d="M179.837 124.727V165.7H176.382V124.727H179.837Z" fill="black"/>
<path fill-rule="evenodd" clip-rule="evenodd" d="M163.581 94.6758C161.973 98.4212 161.009 101.822 161.009 104.448C161.009 113.892 168.699 121.583 178.144 121.583C187.591 121.583 195.28 113.925 195.28 104.448C195.28 101.537 194.281 97.9937 192.643 94.2149C191.018 90.4645 188.823 86.6185 186.567 83.1439C184.314 79.6723 182.022 76.6056 180.224 74.4179C179.339 73.3419 178.589 72.4975 178.033 71.9285C177.467 72.5197 176.707 73.4083 175.81 74.5456C174.02 76.8176 171.759 79.9888 169.543 83.5337C167.325 87.0813 165.173 90.9682 163.581 94.6758ZM177.01 68.2839C177.156 68.2027 177.539 68 178.041 68C178.564 68 178.959 68.2276 179.072 68.2926L179.073 68.2935C179.253 68.3971 179.417 68.5193 179.553 68.6285C179.829 68.8509 180.14 69.1438 180.464 69.4739C181.121 70.1423 181.954 71.0829 182.892 72.2238C184.773 74.5111 187.141 77.6824 189.465 81.2629C191.787 84.8403 194.088 88.8603 195.813 92.841C197.526 96.7933 198.735 100.846 198.735 104.448C198.735 115.837 189.495 125.038 178.144 125.038C166.791 125.038 157.554 115.801 157.554 104.448C157.554 101.114 158.74 97.195 160.407 93.3129C162.089 89.393 164.336 85.3448 166.613 81.7022C168.892 78.0569 171.225 74.7827 173.097 72.4071C174.03 71.2228 174.868 70.2382 175.541 69.5358C175.873 69.1889 176.196 68.8774 176.492 68.6399C176.637 68.5228 176.814 68.3928 177.01 68.2839Z" fill="black"/>
<path fill-rule="evenodd" clip-rule="evenodd" d="M170.87 101.216L172.634 99.3188L178.141 104.439L183.616 99.3212L185.385 101.214L178.146 107.981L170.87 101.216Z" fill="black"/>
<path fill-rule="evenodd" clip-rule="evenodd" d="M176.71 122.689V83.8921H179.301V122.689H176.71Z" fill="black"/>
</svg>
