<svg xmlns="http://www.w3.org/2000/svg" viewBox="0 0 51 51" xml:space="preserve"><path d="M50.5.5v50H.5V.5h50M51 0H0v51h51V0z"/><path class="st0" d="M10.7 45.8h29.7v-5.2H10.7v5.2zm.5-4.7h28.7v4.2H11.2v-4.2zm5.2-2.4h24v-3h-24v3zm.5-2.5h23v2h-23v-2zM35 31.1H10.7V34H35v-2.9zm-.5 2.4H11.2v-1.9h23.3v1.9zm-23.8-4.3h29.7v-2.9H10.7v2.9zm.5-2.4h28.7v1.9H11.2v-1.9zm5.2-2.3h24v-2.9h-24v2.9zm.5-2.4h23V24h-23v-1.9zM35 16.8H10.8v2.9H35v-2.9zm-.5 2.4H11.3v-1.9h23.2v1.9zM11 5.3v.2h-.2v9.6h29.6V5.3H11zm14.8 6.9V5.8h7.4v6.4h-7.4zm-8 0V5.8h7.5v6.4h-7.5zm-6.5-6.4h6.1v6.4h-6.1V5.8zm28.5 8.8H11.3v-1.9h28.6v1.9zm-6.1-2.4V5.8h6.2v6.4h-6.2z"/></svg>