<svg xmlns="http://www.w3.org/2000/svg" viewBox="0 0 51 51" xml:space="preserve"><path d="M50.5.5v50H.5V.5h50M51 0H0v51h51V0z"/><path d="M32.1 8.8V5.2H18.7v3.5h-4.8v37h23.2V8.8h-5zm4.5.5v1.4h-4.5V9.3h4.5zm-5 7h-3.8v-1h3.8v1zm.5-1h4.5v1h-4.5v-1zm-.5 6.7h-3.8v-1h3.8v1zm.5-1h4.5v1h-4.5v-1zm-.5 6.9h-3.8v-1h3.8v1zm.5-1h4.5v1h-4.5v-1zm-.5 6.6h-3.8v-1h3.8v1zm.5-1h4.5v1h-4.5v-1zm-.5 6.8h-3.8v-1.1h3.8v1.1zm.5-1.1h4.5v1.1h-4.5v-1.1zm-13.5 1.1h-4.3v-1.1h4.3v1.1zm.5-1.1H23v1.1h-3.8v-1.1zm0-5.7H23v1h-3.8v-1zm-.5 1h-4.3v-1h4.3v1zm.5-6.6H23v1h-3.8v-1zm-.5 1h-4.3v-1h4.3v1zm.5-6.9H23v1h-3.8v-1zm-.5 1h-4.3v-1h4.3v1zm.5-6.7H23v1h-3.8v-1zm-.5 1h-4.3v-1h4.3v1zm4.9 17.2v-1h3.8v1h-3.8zm3.8.5v3.6h-3.8V34h3.8zm-3.8-2v-3.6h3.8V32h-3.8zm0-4.1v-1h3.8v1h-3.8zm0-1.5v-3.9h3.8v3.9h-3.8zm0-4.4v-1h3.8v1h-3.8zm0-1.5v-3.6h3.8v3.6h-3.8zm0-4.2v-1h3.8v1h-3.8zm0-1.5v-3.6h3.8v3.6h-3.8zm0-4.1V9.3h3.8v1.4h-3.8zm-.5 0h-3.8V9.3H23v1.4zm0 .5v3.6h-3.8v-3.6H23zm0 5.6v3.6h-3.8v-3.6H23zm0 5.7v3.9h-3.8v-3.9H23zm0 5.9V32h-3.8v-3.6H23zm0 5.6v3.6h-3.8V34H23zm.5 4.2h3.8v1.1h-3.8v-1.1zm4.3-.5V34h3.8v3.6h-3.8zm0-5.7v-3.6h3.8V32h-3.8zm0-5.6v-3.9h3.8v3.9h-3.8zm0-5.9v-3.6h3.8v3.6h-3.8zm0-5.7v-3.6h3.8v3.6h-3.8zm0-4.1V9.3h3.8v1.4h-3.8zm3.8-4.9v3h-3.8v-3h3.8zm-4.3 0v3h-3.8v-3h3.8zm-8.2 0H23v3h-3.8v-3zm-4.7 3.5h4.3v1.4h-4.3V9.3zm0 1.9h4.3v3.6h-4.3v-3.6zm0 5.6h4.3v3.6h-4.3v-3.6zm0 5.7h4.3v3.9h-4.3v-3.9zm0 5.9h4.3V32h-4.3v-3.6zm0 5.6h4.3v3.6h-4.3V34zm0 11.2v-5.5H23v5.5h-8.6zm9.1 0v-5.5h3.8v5.5h-3.8zm4.3 0v-5.5h3.8v5.5h-3.8zm8.8 0h-4.5v-5.5h4.5v5.5zm0-7.5h-4.5V34h4.5v3.7zm0-5.7h-4.5v-3.6h4.5V32zm0-5.6h-4.5v-3.9h4.5v3.9zm0-5.9h-4.5v-3.6h4.5v3.6zm0-5.7h-4.5v-3.6h4.5v3.6z" fill="#4c4c4c"/></svg>