<?xml version="1.0" encoding="utf-8"?>
<!-- Generator: Adobe Illustrator 27.3.1, SVG Export Plug-In . SVG Version: 6.00 Build 0)  -->
<svg version="1.1" id="Capa_1" xmlns="http://www.w3.org/2000/svg" xmlns:xlink="http://www.w3.org/1999/xlink" x="0px" y="0px"
	 viewBox="0 0 1100 300" style="enable-background:new 0 0 1100 300;" xml:space="preserve">
<style type="text/css">
	.st0{fill:#191919;}
</style>
<g>
	<path class="st0" d="M261.7,2v295.9h-73.8v-83.7v-2h-2H77.9h-2v2v83.7H2V2h73.8v152.2v2h2h108.1h2v-2V2H261.7 M263.8,0h-77.8v154.2
		H77.8V0H0v299.9h77.9v-85.7h108.1v85.7h77.8V0L263.8,0z"/>
	<path class="st0" d="M716.2,2c29.6,0,51.3,6.6,64.5,19.8c13.2,13.1,19.9,34.6,19.9,63.9l0,8.6c0,23.6-10.2,44.2-30.4,61.5
		c-6.3,5.4-93.1,81.9-93.9,82.7l-4,3.5h5.3h120.7v56H571.2v-57.1l137.4-119.6c11.4-8.2,18.3-21.5,18.3-35.5
		c0-15.3-12.5-27.7-28-27.7H571.2V2H716.2 M716.2,0h-147v60h129.7c14.3,0,25.9,11.5,25.9,25.7c0,13.4-6.5,26.1-17.5,33.9L569.1,240
		v60h231.2v-60H677.6c0,0,87.6-77.3,93.9-82.7c20.8-17.7,31.1-38.7,31.1-63l0-8.6c0-30-6.9-51.8-20.5-65.3
		C768.4,6.8,746.5,0,716.2,0L716.2,0z"/>
	<path class="st0" d="M1013.5,2c29.6,0,51.3,6.6,64.5,19.8c13.2,13.1,19.9,34.6,19.9,63.9v42.8c0,29.3-6.7,50.8-19.9,63.9
		c-13.2,13.1-34.9,19.7-64.5,19.8H909.7h-2v2v83.7h-73.8V2H1013.5 M907.7,156.3h2h86.5c9.2,0,16.2-2.4,20.9-7
		c4.7-4.7,7.1-11.6,7.1-20.7V85.7c0-9.1-2.4-16-7.1-20.7c-4.7-4.7-11.7-7-20.9-7h-86.5h-2v2v94.3V156.3 M1013.5,0H831.9v299.9h77.8
		v-85.7h103.8c30.3,0,52.2-6.8,65.9-20.4c13.7-13.5,20.5-35.3,20.5-65.3V85.7c0-30-6.9-51.8-20.5-65.3C1065.8,6.8,1043.8,0,1013.5,0
		L1013.5,0z M909.7,154.3V60h86.5c17.3,0,25.9,8.6,25.9,25.7v42.8c0,17.1-8.6,25.7-25.9,25.7H909.7L909.7,154.3z"/>
	<path class="st0" d="M535.5,2v56H399.1c-9.2,0-16.2,2.4-20.9,7c-4.7,4.7-7.1,11.6-7.1,20.7l0,128.5c0,9.1,2.4,16,7.1,20.7
		c4.7,4.7,11.7,7,20.9,7h136.3v56H381.8c-29.6,0-51.3-6.7-64.5-19.8c-13.2-13.1-19.9-34.6-19.9-63.9V85.7c0-29.3,6.7-50.9,19.9-64
		C330.5,8.7,352.3,2,381.8,2H535.5 M537.5,0H381.8c-30.3,0-52.3,6.8-65.9,20.4c-13.7,13.6-20.5,35.4-20.5,65.4v128.5
		c0,30,6.8,51.8,20.5,65.3c13.7,13.5,35.7,20.3,65.9,20.4h155.7v-60H399.2c-17.3,0-25.9-8.6-25.9-25.7l0-128.5
		c0-17.1,8.6-25.7,25.9-25.7h138.3V0L537.5,0z"/>
</g>
</svg>
